<?xml version="1.0" standalone="no"?>
<!DOCTYPE svg PUBLIC "-//W3C//DTD SVG 20010904//EN"
 "http://www.w3.org/TR/2001/REC-SVG-20010904/DTD/svg10.dtd">
<svg version="1.0" xmlns="http://www.w3.org/2000/svg"
 width="540.000000pt" height="540.000000pt" viewBox="0 0 540.000000 540.000000"
 preserveAspectRatio="xMidYMid meet">
<metadata>
Created by potrace 1.14, written by Peter Selinger 2001-2017
</metadata>
<g transform="translate(0.000000,540.000000) scale(0.100000,-0.100000)"
fill="#000000" stroke="none">
<path d="M1436 5379 c-32 -156 -61 -536 -73 -976 -5 -201 -8 -233 -22 -237 -9
-2 -49 -12 -89 -21 -40 -10 -111 -37 -157 -61 l-85 -43 0 262 c1 239 8 382 25
477 5 27 4 31 -4 19 -22 -35 -33 -165 -38 -467 -5 -306 -6 -313 -27 -324 -34
-18 -163 -116 -288 -220 -65 -54 -120 -98 -123 -98 -8 0 4 411 16 538 12 134
48 308 83 411 28 79 32 101 17 86 -17 -18 -69 -200 -90 -310 -29 -158 -41
-311 -41 -545 l0 -205 -90 -90 c-49 -49 -90 -94 -90 -99 0 -5 39 28 88 75 l87
84 6 -275 c12 -513 56 -833 183 -1333 72 -284 79 -272 -68 -122 -306 312 -395
454 -505 800 -93 288 -112 420 -120 805 -5 234 -8 291 -15 245 -11 -73 -1
-878 14 -1100 19 -296 45 -515 77 -660 36 -165 117 -401 169 -494 13 -24 22
-46 20 -48 -6 -7 -125 94 -213 181 -46 44 -83 76 -83 70 0 -14 146 -155 248
-238 47 -39 82 -75 82 -86 0 -10 7 -42 16 -71 8 -30 23 -79 32 -109 9 -30 22
-62 29 -71 7 -8 13 -29 13 -45 0 -23 2 -26 11 -14 8 11 9 7 4 -17 -4 -18 -2
-34 4 -38 6 -3 11 0 11 7 1 31 30 -58 30 -93 0 -21 4 -41 10 -44 5 -3 10 -21
10 -38 0 -25 3 -29 11 -17 8 12 9 9 5 -12 -3 -15 -2 -29 3 -32 12 -8 21 32 14
65 -3 18 -1 29 5 29 6 0 9 -7 5 -16 -3 -9 -1 -19 6 -23 9 -6 9 -15 1 -36 -8
-21 -8 -36 0 -56 7 -15 10 -40 9 -55 -2 -31 20 -94 33 -94 14 0 9 23 -9 42
-15 17 -15 18 1 18 23 0 31 -28 18 -63 -13 -34 -7 -50 9 -27 8 11 9 7 4 -14
-4 -21 3 -50 26 -105 18 -42 36 -78 40 -81 3 -3 12 -23 19 -45 13 -40 109
-222 151 -288 l24 -37 1033 0 c567 1 1032 2 1032 5 0 2 -132 47 -292 101 -352
116 -514 176 -753 279 -263 113 -328 149 -415 231 -70 67 -75 70 -77 46 0 -15
2 -20 6 -13 8 13 30 -14 44 -52 6 -17 4 -16 -19 2 -22 17 -30 19 -43 9 -13
-10 -14 -10 -3 2 14 16 16 34 3 26 -4 -3 -7 18 -6 47 1 39 -5 63 -23 95 -27
49 -42 51 -18 3 18 -33 23 -221 7 -221 -5 0 -11 10 -13 23 -2 12 -8 21 -14 20
-5 -1 -10 8 -11 20 -1 37 -12 80 -23 91 -5 5 -10 18 -10 27 0 9 -9 19 -20 22
-13 3 -20 14 -20 29 0 13 -11 39 -25 58 -27 36 -33 85 -12 93 9 4 9 6 -1 6 -8
1 -10 6 -6 14 6 9 5 9 -8 -1 -11 -9 -14 -24 -11 -52 4 -35 3 -39 -12 -34 -13
5 -15 14 -11 36 3 18 2 27 -4 23 -6 -3 -10 -17 -10 -31 0 -13 -4 -24 -10 -24
-5 0 -10 14 -10 30 0 17 4 30 9 30 4 0 29 18 54 40 l45 40 11 -30 c5 -17 8
-38 5 -48 -5 -13 -4 -14 4 -3 8 11 15 5 32 -28 17 -34 19 -45 9 -57 -10 -12
-9 -18 6 -32 16 -16 17 -16 6 5 -6 13 -7 24 -2 27 5 4 12 0 14 -6 3 -8 6 -8 6
-2 1 12 -325 682 -490 1007 -93 183 -102 207 -135 345 -78 334 -120 645 -133
997 -5 132 -8 241 -7 242 2 2 10 -43 19 -100 33 -200 121 -508 204 -712 45
-113 91 -200 100 -192 2 3 -9 29 -26 58 -63 113 -163 402 -221 639 -36 147
-70 375 -70 464 l0 64 55 47 c90 76 237 181 335 238 l46 27 -4 -298 c-3 -173
1 -391 8 -518 17 -306 18 -312 29 -374 10 -54 9 -56 -34 -127 -84 -137 -148
-326 -160 -471 -4 -53 -4 -52 8 15 7 40 16 76 20 79 4 4 7 -33 7 -83 0 -80 3
-96 31 -151 35 -71 100 -133 165 -158 52 -20 66 -13 37 19 -52 56 -92 187 -93
299 0 49 2 56 16 51 14 -5 14 -3 3 15 -16 26 -2 107 34 185 l23 51 32 -99 c18
-55 40 -113 48 -130 18 -38 15 -26 -30 112 -20 62 -36 121 -36 132 0 34 66
134 125 191 55 51 58 53 72 34 23 -32 26 -61 10 -111 -33 -105 -34 -103 21
-103 55 0 72 -12 72 -53 0 -36 -47 -85 -91 -94 l-31 -6 7 -80 c13 -148 69
-271 164 -360 56 -53 118 -86 215 -116 78 -24 79 -24 72 -12 -3 5 -30 15 -58
21 -136 32 -267 131 -316 238 -27 59 -26 102 3 146 26 40 152 138 172 134 12
-2 24 -22 36 -58 12 -39 30 -66 60 -94 38 -35 46 -38 86 -33 88 10 141 83 149
204 4 68 6 73 28 73 39 0 129 -39 157 -68 38 -39 77 -130 78 -182 1 -45 2 -44
11 15 20 129 -8 277 -79 424 -53 110 -126 191 -213 235 l-55 28 50 -7 c28 -4
84 -20 125 -36 70 -27 79 -34 138 -110 35 -44 112 -132 170 -195 59 -63 149
-165 200 -227 161 -194 153 -171 -13 38 -61 77 -132 169 -157 205 -63 91 -163
241 -177 267 -10 20 -9 22 6 17 10 -3 2 9 -18 27 -32 31 -69 80 -69 93 0 3 15
3 33 1 30 -5 29 -4 -11 15 -40 18 -47 28 -92 123 -113 240 -218 546 -270 792
-11 54 -23 101 -26 104 -10 11 -2 -50 22 -157 46 -208 158 -529 251 -724 26
-54 44 -100 41 -104 -3 -3 -25 0 -47 7 -33 10 -47 22 -71 61 -35 57 -35 55
-12 61 16 4 16 4 0 10 -10 4 -24 9 -31 11 -17 5 -113 184 -180 336 -85 194
-170 459 -193 606 l-6 41 113 22 c63 12 124 21 137 21 12 0 22 5 22 11 0 8
-16 10 -52 5 -29 -3 -94 -9 -143 -13 l-91 -6 -18 144 c-37 291 -33 665 10 957
9 57 13 106 10 109 -3 3 -7 -5 -10 -18z m-21 -1073 c18 -126 16 -135 -29 -136
-18 0 -19 7 -13 143 4 78 8 180 8 227 l2 85 8 -100 c4 -55 15 -153 24 -219z
m-65 -164 c0 -4 -29 -15 -64 -25 -35 -10 -109 -41 -166 -68 -99 -48 -125 -54
-102 -26 38 45 332 151 332 119z m111 -82 c9 -41 20 -87 24 -102 l7 -28 -61 0
-61 0 0 95 c0 79 3 96 18 104 40 24 55 10 73 -69z m-104 -32 c1 -95 -6 -118
-36 -118 -10 0 -26 -7 -37 -15 -17 -13 -15 -13 19 -4 20 5 41 8 46 5 4 -3 11
-79 15 -168 7 -190 17 -296 48 -503 30 -212 34 -193 -40 -221 -35 -13 -77 -33
-93 -45 -39 -27 -53 -20 -72 35 -15 43 -15 46 6 68 12 13 40 37 62 55 22 18
34 32 27 33 -7 0 -35 -21 -63 -47 -27 -25 -51 -44 -54 -41 -7 7 -72 224 -89
299 -25 110 -54 297 -66 424 -6 66 -13 137 -15 157 l-5 38 82 41 c75 38 226
96 254 98 7 1 11 -31 11 -91z m-369 -37 c-1 -6 -43 -35 -93 -66 -103 -64 -102
-60 4 19 72 54 96 67 89 47z m512 -85 c0 -59 119 -362 222 -567 77 -154 86
-175 69 -165 -20 13 -184 24 -257 18 -74 -7 -69 -7 81 -13 88 -4 170 -10 182
-15 25 -10 97 -117 83 -122 -6 -2 -41 1 -79 7 -95 15 -214 14 -284 -3 -43 -10
-59 -11 -62 -2 -27 86 -85 651 -85 828 0 34 2 37 33 41 73 9 97 7 97 -7z
m-435 -454 c14 -73 44 -192 66 -264 22 -71 39 -134 37 -138 -2 -5 -32 -43 -68
-84 l-65 -77 -8 38 c-5 21 -10 225 -12 453 -4 389 -3 409 10 310 8 -57 26
-164 40 -238z m807 -426 c20 -4 39 -14 42 -22 5 -12 2 -15 -11 -9 -10 4 -37
14 -60 22 -42 14 -61 29 -25 20 9 -3 33 -8 54 -11z m-667 -60 l19 -48 -55 -52
c-30 -28 -68 -69 -86 -90 -36 -44 -36 -44 -47 54 -5 45 -4 47 66 124 39 42 74
74 78 69 4 -4 16 -30 25 -57z m796 23 c22 -9 59 -59 44 -59 -14 0 -105 57
-110 68 -5 14 12 11 66 -9z m-1944 -71 c-3 -7 -5 -2 -5 12 0 14 2 19 5 13 2
-7 2 -19 0 -25z m23 -39 c0 -6 -4 -7 -10 -4 -5 3 -10 11 -10 16 0 6 5 7 10 4
6 -3 10 -11 10 -16z m-33 -61 c-2 -13 -4 -5 -4 17 -1 22 1 32 4 23 2 -10 2
-28 0 -40z m37 26 c3 -8 2 -12 -4 -9 -6 3 -10 10 -10 16 0 14 7 11 14 -7z
m1336 -26 c-18 -18 -46 -50 -61 -71 -26 -36 -28 -37 -38 -18 -20 37 -12 50 57
85 37 19 69 35 71 36 3 0 -10 -15 -29 -32z m65 -10 c3 -13 27 -106 55 -207 27
-101 50 -193 50 -205 1 -12 9 -46 20 -76 18 -54 18 -54 -1 -30 -45 57 -177
250 -221 321 l-46 78 27 43 c27 43 99 113 107 105 3 -3 7 -15 9 -29z m-1378
-30 c-2 -7 2 -26 10 -43 14 -27 14 -28 0 -15 -19 19 -27 70 -11 70 3 0 4 -6 1
-12z m2018 0 c21 -10 148 -178 179 -238 10 -20 -61 56 -145 156 -82 97 -86
106 -34 82z m-1998 -88 c13 0 38 -104 29 -119 -5 -7 -1 -9 8 -5 11 4 16 0 16
-13 0 -10 4 -23 9 -28 6 -6 4 -20 -4 -35 -9 -16 -14 -19 -15 -10 0 9 6 22 13
29 10 10 9 11 -5 6 -10 -4 -18 -11 -18 -17 0 -5 -4 -7 -9 -3 -6 3 -15 -11 -20
-32 -12 -43 -13 -68 -2 -39 7 17 8 17 24 2 9 -10 17 -25 17 -34 0 -15 -2 -15
-10 -2 -7 11 -10 6 -10 -20 1 -27 3 -31 10 -18 7 11 21 15 47 13 21 -1 26 0
11 2 -19 3 -28 10 -28 23 0 10 -4 22 -10 25 -5 3 -10 11 -10 16 0 6 5 7 10 4
19 -12 31 5 19 27 -7 13 -7 24 -1 30 7 7 12 -1 17 -22 4 -18 22 -59 41 -90 19
-32 34 -61 34 -64 0 -7 55 -88 98 -146 38 -51 223 -250 306 -330 31 -30 56
-60 56 -68 0 -12 -3 -12 -17 -1 -14 10 -13 8 2 -10 11 -14 15 -21 9 -18 -7 4
-14 0 -18 -8 -10 -26 -36 -16 -53 21 -15 31 -15 36 -3 44 8 6 21 8 28 5 7 -3
10 0 7 6 -4 5 -15 7 -26 4 -21 -7 -25 4 -9 23 6 6 7 10 4 7 -4 -3 -14 1 -22 8
-13 10 -14 9 -7 -3 5 -8 10 -23 10 -32 1 -14 -1 -15 -12 -7 -10 9 -13 8 -13
-2 0 -8 -14 11 -31 41 -22 40 -28 59 -21 71 7 11 6 16 -4 16 -7 0 -11 -4 -8
-9 3 -4 -1 -8 -9 -8 -23 0 -38 25 -33 54 4 23 3 25 -15 16 -23 -13 -26 -25 -3
-16 9 3 12 2 9 -5 -11 -16 -28 -5 -32 22 -2 16 0 20 6 11 7 -11 9 -11 14 1 8
20 -3 29 -19 16 -10 -8 -20 -6 -40 10 -14 11 -30 19 -34 16 -9 -6 -5 39 6 57
6 9 3 9 -10 -1 -15 -12 -19 -12 -34 3 -13 13 -14 18 -4 25 9 6 8 12 -8 26 -11
10 -20 13 -20 7 0 -7 5 -12 10 -12 6 0 10 -5 10 -12 0 -8 -6 -7 -16 4 -10 10
-14 23 -9 37 l6 21 20 -22 20 -23 -17 28 c-9 15 -21 24 -25 20 -5 -5 -25 -7
-45 -5 -34 4 -35 5 -32 46 2 28 7 40 16 38 8 -1 11 2 7 8 -3 6 -11 8 -16 5 -5
-4 -9 -1 -9 4 0 6 -4 11 -10 11 -5 0 -7 -7 -4 -15 5 -11 -1 -15 -25 -15 l-32
0 3 -87 c3 -84 4 -88 26 -87 23 1 30 -20 11 -32 -8 -4 -8 -9 0 -17 6 -6 11
-18 11 -26 0 -14 -2 -14 -11 -1 -8 12 -10 8 -7 -17 3 -18 1 -30 -4 -27 -10 6
-10 -8 -2 -31 5 -11 9 -13 14 -6 3 6 7 -21 8 -61 0 -40 -3 -77 -9 -84 -7 -8
-3 -10 15 -7 23 5 24 2 31 -75 4 -44 4 -91 1 -104 -3 -12 -3 -17 0 -9 5 11 8
11 15 0 7 -11 9 -9 7 6 0 11 0 40 2 65 l3 45 7 -50 c4 -28 2 -66 -3 -85 -14
-45 -14 -48 -16 -62 -4 -47 -103 214 -151 398 -50 192 -103 662 -85 749 5 23
10 33 12 22 3 -9 9 -15 14 -12 11 7 11 3 2 -21 -6 -16 -7 -16 -14 2 -7 18 -8
17 -8 -3 -1 -30 16 -38 25 -11 6 20 8 20 19 5 11 -16 13 -16 19 -1 8 22 8 26
-3 19 -6 -3 -15 3 -20 14 -15 28 -13 39 3 19 7 -10 18 -18 23 -18z m1651 -122
c2 -16 -3 -28 -12 -31 -20 -8 -28 6 -20 38 8 32 28 28 32 -7z m218 -94 c39
-18 54 -31 54 -46 0 -17 -4 -19 -27 -13 -39 9 -133 55 -133 64 0 29 38 27 106
-5z m-1826 -20 c0 -8 -4 -14 -10 -14 -5 0 -10 9 -10 21 0 11 5 17 10 14 6 -3
10 -13 10 -21z m24 0 c3 -8 2 -12 -4 -9 -6 3 -10 10 -10 16 0 14 7 11 14 -7z
m1286 -75 c0 -17 -59 -98 -80 -109 -10 -5 -28 -10 -39 -10 -41 0 -20 45 46 95
46 35 73 44 73 24z m-650 -556 c0 -7 -6 -13 -14 -13 -14 0 -31 34 -42 85 -5
28 -4 27 25 -15 17 -25 31 -51 31 -57z m35 -65 c17 -44 13 -61 -21 -77 -54
-24 -74 -5 -74 72 0 20 0 20 21 1 21 -19 21 -19 15 11 -6 27 -4 30 19 30 19 0
28 -8 40 -37z m-114 -78 c5 0 9 -7 9 -15 0 -8 -5 -15 -11 -15 -5 0 -7 5 -3 12
5 7 2 9 -7 6 -10 -4 -14 3 -12 26 2 42 5 46 10 14 2 -16 9 -28 14 -28z m6 28
c-3 -8 -6 -5 -6 6 -1 11 2 17 5 13 3 -3 4 -12 1 -19z m149 -95 c-3 -29 -9 -77
-12 -106 l-6 -53 50 -42 c27 -23 69 -50 94 -61 41 -17 58 -36 58 -62 0 -4 -13
-6 -30 -3 -32 7 -37 1 -60 -84 -6 -25 -16 -42 -23 -40 -13 4 -42 88 -52 149
-5 36 -33 59 -73 59 -37 0 -44 16 -56 146 -8 71 -11 132 -9 137 2 4 15 7 27 7
13 0 34 9 47 20 22 18 25 18 37 2 9 -12 12 -33 8 -69z m-168 12 c-3 -3 -9 2
-12 12 -6 14 -5 15 5 6 7 -7 10 -15 7 -18z m35 -75 c2 -41 1 -66 -3 -55 -7 17
-8 16 -13 -10 -2 -16 -3 -3 -2 30 2 38 0 53 -5 40 -5 -11 -9 -15 -10 -10 -1 6
-6 -1 -10 -15 -8 -24 -8 -23 -9 8 -1 18 3 31 8 28 11 -7 21 17 21 52 0 57 18
3 23 -68z m225 -66 c54 -111 59 -124 39 -119 -33 10 -97 56 -120 87 -18 24
-19 31 -7 92 7 36 15 66 19 66 4 0 35 -56 69 -126z m-682 38 c-7 -20 26 -58
41 -49 4 3 8 -6 8 -19 0 -13 -3 -24 -7 -24 -6 0 -5 -22 7 -105 3 -21 2 -25 -4
-15 -5 8 -11 35 -14 60 -2 25 -14 61 -25 82 -11 20 -18 39 -15 42 4 3 1 6 -6
6 -9 0 -9 5 -1 20 13 25 23 26 16 2z m415 -45 c-10 -9 -11 -8 -5 6 3 10 9 15
12 12 3 -3 0 -11 -7 -18z m-350 -20 c-10 -9 -11 -8 -5 6 3 10 9 15 12 12 3 -3
0 -11 -7 -18z m403 -45 c3 -29 1 -52 -3 -52 -5 0 -9 25 -9 56 0 68 6 66 12 -4z
m-401 1 c-4 -9 -2 -14 3 -10 7 4 8 -6 5 -26 l-5 -32 -7 35 c-4 19 -5 38 -3 42
9 14 13 8 7 -9z m391 -72 c15 2 26 -24 26 -63 0 -35 -2 -38 -29 -38 -26 0 -29
3 -35 48 -3 26 -8 63 -11 82 -4 30 -2 28 9 -10 l14 -45 2 50 c3 49 3 49 9 12
3 -21 10 -37 15 -36z m102 9 c27 -10 31 -17 46 -92 11 -53 25 -89 38 -102 21
-21 21 -21 36 -1 8 11 19 38 25 60 5 22 12 45 13 51 2 5 19 8 38 6 33 -4 37
-9 89 -118 64 -130 66 -119 -34 -193 -75 -56 -91 -59 -137 -22 -48 38 -60 29
-14 -11 19 -17 34 -34 34 -39 0 -17 -38 -9 -51 12 -8 11 -26 22 -41 22 -20 2
-24 6 -18 16 4 8 4 26 -1 39 -8 22 -8 23 6 12 8 -7 13 -16 10 -20 -3 -5 -1
-11 5 -15 20 -13 9 34 -12 49 -23 16 -43 12 -32 -6 4 -7 2 -8 -5 -4 -6 4 -9
12 -6 17 4 5 1 9 -4 9 -6 0 -11 9 -11 21 0 11 5 17 10 14 6 -4 7 -11 4 -17 -4
-6 -2 -8 4 -4 6 3 13 2 17 -4 3 -5 11 -10 16 -10 6 0 -5 18 -25 41 -35 42 -40
58 -51 179 -3 36 -8 77 -11 93 -6 31 10 35 62 17z m-482 -125 l6 -50 -15 40
c-9 22 -13 46 -10 54 8 21 12 12 19 -44z m418 -50 c1 -31 -1 -57 -7 -59 -6 -3
-6 -7 1 -13 17 -13 23 -50 8 -50 -7 0 -11 4 -8 9 3 5 1 14 -5 21 -12 15 -13
147 -1 147 4 0 10 -25 12 -55z m-367 -31 c15 -10 25 -26 25 -40 0 -32 -11 -30
-35 6 -11 16 -23 30 -27 30 -5 0 -8 5 -8 10 0 15 17 12 45 -6z m375 -114 c5 9
8 5 8 -11 0 -13 2 -35 5 -49 2 -14 2 -16 0 -6 -4 16 -7 17 -15 5 -7 -10 -7 -7
-3 10 5 14 3 21 -3 17 -5 -3 -9 6 -9 22 0 15 2 21 5 13 3 -10 6 -11 12 -1z
m62 -69 c8 12 9 12 6 0 -7 -25 -28 -24 -27 1 1 19 2 20 6 4 4 -15 7 -16 15 -5z
m-5 -73 c-3 -7 -5 -2 -5 12 0 14 2 19 5 13 2 -7 2 -19 0 -25z m220 8 c0 -15
-105 -42 -129 -33 -7 3 -4 6 9 6 32 1 54 12 47 23 -5 7 5 9 25 6 17 -2 31 -1
31 4 0 4 4 8 8 8 5 0 9 -6 9 -14z m-280 -28 c-3 -8 -6 -5 -6 6 -1 11 2 17 5
13 3 -3 4 -12 1 -19z m283 -2 c0 -2 -9 -6 -20 -9 -11 -3 -20 -1 -20 4 0 5 9 9
20 9 11 0 20 -2 20 -4z m-269 -29 c-10 -9 -11 -8 -5 6 3 10 9 15 12 12 3 -3 0
-11 -7 -18z m219 15 c0 -4 -10 -9 -22 -9 -18 -2 -20 0 -8 7 18 12 30 13 30 2z
m50 -58 c0 -35 -4 -53 -10 -49 -6 4 -8 11 -5 16 4 5 3 19 0 30 -6 17 -9 19
-16 8 -6 -10 -9 -7 -9 12 0 29 7 39 27 39 9 0 13 -16 13 -56z m-243 -16 c-2
-13 -4 -3 -4 22 0 25 2 35 4 23 2 -13 2 -33 0 -45z m30 40 c-3 -8 -6 -5 -6 6
-1 11 2 17 5 13 3 -3 4 -12 1 -19z m30 0 c-3 -8 -6 -5 -6 6 -1 11 2 17 5 13 3
-3 4 -12 1 -19z m30 0 c-3 -8 -6 -5 -6 6 -1 11 2 17 5 13 3 -3 4 -12 1 -19z
m200 0 c-3 -8 -6 -5 -6 6 -1 11 2 17 5 13 3 -3 4 -12 1 -19z m50 0 c-3 -8 -6
-5 -6 6 -1 11 2 17 5 13 3 -3 4 -12 1 -19z m-62 -75 c-10 -40 -17 -20 -9 23 5
24 9 32 12 21 2 -10 1 -30 -3 -44z m-222 27 c3 -11 1 -20 -4 -20 -5 0 -9 9 -9
20 0 11 2 20 4 20 2 0 6 -9 9 -20z m-96 -22 c-3 -7 -5 -2 -5 12 0 14 2 19 5
13 2 -7 2 -19 0 -25z m20 -10 c-3 -8 -6 -5 -6 6 -1 11 2 17 5 13 3 -3 4 -12 1
-19z m33 -8 c0 -5 -4 -10 -10 -10 -5 0 -10 5 -10 10 0 6 5 10 10 10 6 0 10 -4
10 -10z m51 -50 c5 0 9 -5 9 -11 0 -8 -5 -8 -15 1 -8 7 -14 20 -14 29 1 13 2
13 6 -1 2 -10 9 -18 14 -18z m146 -52 c-2 -13 -4 -5 -4 17 -1 22 1 32 4 23 2
-10 2 -28 0 -40z m-150 -30 c-3 -8 -6 -5 -6 6 -1 11 2 17 5 13 3 -3 4 -12 1
-19z m174 -9 c-5 -13 -10 -19 -10 -12 -1 15 10 45 15 40 3 -2 0 -15 -5 -28z
m-204 -11 c-3 -8 -6 -5 -6 6 -1 11 2 17 5 13 3 -3 4 -12 1 -19z m660 -77 c1
-20 -1 -28 -3 -18 -3 9 -9 15 -14 12 -5 -3 -7 -13 -4 -23 6 -21 -12 16 -20 41
-3 10 -10 15 -16 12 -6 -4 -10 8 -10 30 l0 37 32 -27 c25 -21 33 -37 35 -64z
m-610 57 c-3 -8 -6 -5 -6 6 -1 11 2 17 5 13 3 -3 4 -12 1 -19z m781 -169 c0
-52 -2 -55 -17 -40 -9 9 -13 17 -9 19 13 6 -20 33 -42 35 -25 2 -35 26 -13 34
15 6 14 7 -3 14 -10 4 -28 7 -39 7 -16 0 -15 -2 5 -8 16 -5 19 -8 8 -9 -12 -1
-18 -13 -22 -43 -12 -91 -13 -90 -15 14 l-1 108 75 -38 74 -37 -1 -56z m-1029
6 c0 -5 -4 -3 -9 5 -5 8 -9 22 -9 30 0 16 17 -16 18 -35z m1116 10 c22 -9 89
-38 149 -63 l110 -47 2 -50 c2 -27 1 -43 -2 -35 -3 8 -8 22 -11 30 -4 11 -8 8
-13 -10 -7 -22 -8 -20 -10 15 l-3 40 -6 -35 -7 -35 -7 38 c-7 31 -11 37 -27
32 -11 -3 -29 -1 -42 6 -16 9 -23 9 -26 0 -5 -16 -19 -14 -26 5 -4 10 -2 13 7
8 9 -5 9 -4 -1 7 -7 7 -23 14 -37 14 -14 1 -40 16 -59 33 -27 24 -35 28 -40
16 -3 -8 -2 -13 3 -10 5 3 19 -2 32 -12 l22 -19 -21 -5 c-12 -4 -25 -1 -29 5
-4 7 -10 2 -14 -13 -5 -16 -7 -1 -8 44 -1 51 2 67 12 63 6 -2 30 -12 52 -22z
m-875 -121 c0 -8 -19 -13 -24 -6 -3 5 1 9 9 9 8 0 15 -2 15 -3z m1211 -18 l34
-14 -30 -13 c-17 -8 -34 -18 -38 -24 -5 -6 -6 -2 -3 8 3 10 1 27 -4 38 -13 23
-4 24 41 5z m-1214 -38 c-3 -8 -6 -5 -6 6 -1 11 2 17 5 13 3 -3 4 -12 1 -19z
m1270 15 c-3 -5 6 -9 20 -10 38 -2 56 -24 43 -54 -9 -20 -10 -20 -7 -3 4 17 1
20 -16 16 -14 -3 -18 -1 -13 6 4 7 5 12 2 12 -2 0 -13 3 -23 6 -15 5 -15 4 -3
-5 11 -7 4 -9 -28 -6 -29 2 -40 0 -36 -7 4 -7 2 -8 -4 -4 -19 12 -14 21 21 39
36 17 51 21 44 10z m427 -167 c3 -12 0 -25 -6 -31 -8 -7 -9 -6 -4 3 4 6 2 12
-4 12 -7 0 -24 8 -38 19 -15 10 -45 21 -67 25 -22 4 -48 15 -57 23 -10 9 -18
11 -18 5 0 -12 -59 -6 -95 10 -14 6 -10 7 15 3 l35 -5 -35 13 c-25 10 -31 16
-20 20 9 5 6 6 -7 3 -14 -2 -23 2 -26 13 -3 14 27 7 159 -38 129 -44 164 -59
168 -75z m-353 67 c-12 -20 -14 -14 -5 12 4 9 9 14 11 11 3 -2 0 -13 -6 -23z"/>
<path d="M90 2629 c0 -21 31 -34 42 -17 6 10 8 10 8 -1 0 -8 3 -12 6 -8 3 3 2
13 -4 22 -8 16 -9 16 -16 0 -6 -17 -7 -17 -21 1 -12 16 -14 17 -15 3z"/>
<path d="M93 2583 c-24 -9 -13 -23 17 -23 32 0 40 14 14 24 -9 3 -16 6 -17 5
-1 0 -8 -3 -14 -6z"/>
<path d="M96 2532 c-8 -13 28 -22 45 -11 9 6 10 9 2 9 -6 0 -18 3 -26 6 -8 3
-18 1 -21 -4z"/>
<path d="M102 2470 c0 -14 2 -19 5 -12 2 6 2 18 0 25 -3 6 -5 1 -5 -13z"/>
<path d="M90 2429 c0 -5 5 -7 10 -4 6 3 10 8 10 11 0 2 -4 4 -10 4 -5 0 -10
-5 -10 -11z"/>
<path d="M200 2406 c0 -2 7 -9 15 -16 12 -10 15 -10 15 4 0 9 -7 16 -15 16 -8
0 -15 -2 -15 -4z"/>
<path d="M133 2365 c0 -22 2 -30 4 -17 2 12 2 30 0 40 -3 9 -5 -1 -4 -23z"/>
<path d="M238 2353 c-11 -3 -18 -14 -18 -29 0 -31 6 -30 25 4 9 15 14 20 12
11 -3 -9 1 -16 8 -16 10 0 11 5 4 19 -5 10 -11 17 -12 17 -1 -1 -10 -3 -19 -6z"/>
<path d="M136 2288 c-3 -17 -2 -36 4 -42 7 -7 10 4 10 32 0 50 -5 54 -14 10z"/>
<path d="M152 2210 c0 -14 2 -19 5 -12 2 6 2 18 0 25 -3 6 -5 1 -5 -13z"/>
<path d="M427 2083 c-13 -12 -7 -31 11 -38 14 -5 15 -4 5 6 -22 22 -14 33 10
13 l22 -19 -19 23 c-22 25 -20 24 -29 15z"/>
<path d="M180 2067 c0 -7 5 -18 12 -25 8 -8 8 -15 1 -24 -6 -7 -7 -22 -3 -33
6 -16 9 -10 15 27 4 26 4 51 0 57 -9 15 -25 14 -25 -2z"/>
<path d="M206 1905 c16 -65 24 -81 18 -35 -3 25 -10 50 -15 55 -7 7 -8 0 -3
-20z"/>
<path d="M585 1901 c-6 -11 13 -26 22 -17 4 3 1 6 -6 6 -7 0 -9 5 -6 10 3 6 4
10 1 10 -3 0 -7 -4 -11 -9z"/>
<path d="M330 1463 c0 -4 5 -15 10 -23 8 -13 10 -13 10 2 0 9 -4 20 -10 23 -5
3 -10 3 -10 -2z"/>
<path d="M920 936 c0 -2 9 -6 20 -9 11 -3 18 -1 14 4 -5 9 -34 13 -34 5z"/>
<path d="M970 900 c0 -5 5 -10 11 -10 5 0 7 5 4 10 -3 6 -8 10 -11 10 -2 0 -4
-4 -4 -10z"/>
<path d="M1492 549 c2 -7 15 -14 28 -16 27 -4 25 -1 -9 17 -19 9 -22 9 -19 -1z"/>
<path d="M2155 220 c-3 -5 -2 -10 4 -10 5 0 13 5 16 10 3 6 2 10 -4 10 -5 0
-13 -4 -16 -10z"/>
<path d="M2783 5388 c19 -52 81 -254 106 -349 32 -123 125 -569 119 -574 -2
-2 -39 -22 -83 -45 -129 -68 -145 -98 -21 -41 69 33 116 47 116 36 0 -4 9 -78
21 -164 12 -86 22 -218 23 -293 0 -76 4 -138 9 -138 4 0 7 -87 7 -192 0 -292
-33 -562 -100 -830 -51 -202 -129 -456 -176 -572 -41 -100 -59 -136 -118 -236
-16 -28 -17 -32 -3 -21 29 23 144 271 186 401 115 358 180 640 205 897 15 154
28 771 15 735 -3 -9 -9 17 -13 58 -4 41 -16 138 -26 215 -10 77 -18 148 -17
158 0 20 21 31 77 40 25 5 19 1 -20 -13 -51 -18 -52 -19 -15 -14 22 3 49 8 61
10 19 5 26 -8 68 -126 26 -72 45 -137 43 -144 -3 -7 -20 -16 -38 -20 -18 -3
-30 -8 -27 -11 2 -3 20 0 38 5 19 5 37 6 41 2 15 -16 159 -480 159 -511 0 -10
-10 -23 -22 -29 -21 -10 -21 -10 7 -6 l30 5 23 -98 c12 -54 22 -105 22 -113 0
-9 -27 -29 -62 -47 -35 -17 -86 -49 -114 -72 -52 -41 -172 -187 -162 -197 3
-2 19 17 36 44 31 47 118 139 157 165 33 22 122 70 95 51 -108 -76 -198 -217
-220 -346 -15 -84 -10 -101 16 -57 40 68 137 171 207 219 38 28 76 50 83 50
25 0 27 -81 5 -138 -27 -69 -27 -72 13 -72 34 0 35 0 42 -56 6 -52 5 -58 -17
-75 -13 -10 -35 -19 -49 -21 -24 -3 -25 -6 -24 -68 3 -98 32 -226 70 -306 19
-39 34 -76 34 -83 0 -6 -12 -34 -26 -62 -14 -28 -24 -53 -21 -55 2 -2 16 23
32 56 l28 59 50 -44 c65 -60 177 -113 247 -119 l55 -5 -45 10 c-85 20 -153 50
-216 95 -35 25 -68 53 -73 62 -6 12 0 35 20 77 17 33 48 108 71 167 l42 107
32 -67 c21 -43 43 -73 62 -84 99 -59 212 28 217 167 3 100 25 113 117 71 85
-38 127 -99 143 -209 7 -48 24 -64 26 -24 2 39 18 -55 19 -113 l1 -55 29 55
c16 30 64 140 106 243 71 173 78 187 90 165 18 -36 26 -155 15 -233 -6 -38 -8
-71 -6 -74 7 -6 73 143 87 197 l13 47 7 -90 c33 -440 58 -1049 58 -1443 l0
-159 -82 -99 c-260 -317 -816 -772 -1183 -969 -103 -55 -134 -75 -119 -75 6 0
80 40 166 89 168 96 329 205 464 313 47 38 88 67 91 64 3 -3 0 -33 -6 -68 -15
-87 -35 -387 -26 -396 3 -4 11 2 17 12 8 15 12 16 19 5 6 -10 9 -11 9 -1 0 13
40 18 40 5 0 -5 16 -9 36 -10 45 -2 41 21 -4 25 -18 2 -32 7 -32 12 0 5 -7 7
-15 4 -8 -4 -15 -1 -15 5 0 6 5 11 10 11 6 0 10 6 10 14 0 12 7 12 35 5 19 -6
40 -7 45 -4 6 3 10 2 10 -3 0 -6 14 -15 31 -21 37 -13 63 -14 34 -1 -16 7 -17
9 -3 9 9 1 20 -4 24 -10 6 -10 34 -8 79 6 15 5 13 2 -5 -10 -15 -10 -18 -14
-7 -11 11 3 34 -1 52 -10 19 -9 38 -13 43 -10 6 3 15 -1 22 -9 18 -22 230 -18
230 4 0 9 7 102 15 206 32 416 37 1309 11 1900 -17 373 -38 729 -47 795 -20
155 -27 354 -22 625 10 523 -33 818 -184 1263 -33 95 -56 169 -52 165 17 -17
105 -251 184 -488 97 -292 146 -467 183 -657 14 -76 30 -138 34 -138 9 0 6 20
-28 190 -32 154 -94 373 -184 640 -89 266 -149 415 -210 521 -28 48 -50 89
-50 92 0 13 -52 119 -56 114 -3 -3 14 -49 37 -103 50 -120 96 -244 155 -424
46 -142 100 -347 93 -354 -2 -2 -85 15 -184 39 -99 24 -261 61 -360 81 l-181
36 -64 157 c-35 86 -88 204 -116 263 -29 58 -76 173 -105 255 -28 81 -55 155
-60 163 -17 31 -9 -11 17 -83 69 -194 100 -290 160 -496 35 -124 64 -227 64
-230 0 -3 -80 -6 -178 -7 -143 -1 -327 -16 -446 -37 -5 -1 -35 68 -68 153 -58
154 -160 397 -225 539 -18 40 -43 102 -56 137 -12 35 -26 64 -31 64 -4 0 -6
-6 -3 -12z m253 -609 c51 -130 95 -246 96 -259 3 -20 -4 -25 -53 -40 l-56 -17
-38 196 c-20 108 -52 258 -71 333 -19 75 -34 141 -34 145 0 18 68 -137 156
-358z m737 1 c62 -144 97 -232 97 -242 0 -5 -14 -8 -32 -6 l-31 3 -48 180
c-27 99 -49 182 -49 185 -1 17 25 -31 63 -120z m-1 -258 c10 -4 -49 -6 -130
-4 -210 4 -234 9 -47 10 88 0 168 -2 177 -6z m-395 -8 c-3 -3 -12 -4 -19 -1
-8 3 -5 6 6 6 11 1 17 -2 13 -5z m316 -10 c77 -5 107 -11 111 -21 12 -29 46
-255 60 -393 12 -114 21 -324 17 -395 -1 -6 -60 -11 -154 -11 -120 -1 -166 -6
-220 -22 -48 -14 -70 -16 -72 -8 -2 6 -20 67 -40 136 -20 69 -55 181 -77 249
-24 74 -36 127 -31 132 5 5 52 16 104 24 l94 14 -80 -5 c-44 -2 -93 -6 -109
-7 -28 -2 -30 0 -76 131 -56 156 -63 142 85 161 172 22 234 24 388 15z m-456
-10 c-3 -3 -12 -4 -19 -1 -8 3 -5 6 6 6 11 1 17 -2 13 -5z m637 -3 c13 -5 38
-59 82 -177 98 -258 224 -657 212 -669 -3 -3 -34 1 -69 10 -35 8 -80 14 -99
13 -25 0 -28 -2 -10 -4 14 -2 62 -11 107 -20 82 -16 83 -17 93 -52 19 -71 33
-142 28 -147 -2 -3 -40 4 -83 15 -44 11 -116 23 -162 27 -83 6 -83 6 -79 32 2
14 5 54 5 89 l1 62 33 2 32 1 -31 4 -32 4 -6 142 c-9 191 -32 410 -56 543 -11
60 -20 115 -20 122 0 13 24 15 54 3z m-677 -7 c-3 -3 -12 -4 -19 -1 -8 3 -5 6
6 6 11 1 17 -2 13 -5z m938 -31 c153 -27 475 -101 488 -112 11 -11 45 -271 56
-445 14 -203 14 -473 1 -481 -5 -3 -10 -30 -10 -58 0 -29 -7 -89 -16 -134
l-16 -81 -92 92 c-81 83 -103 99 -198 145 l-106 52 -17 72 c-46 192 -163 564
-264 840 -28 76 -51 141 -51 143 0 5 51 -2 225 -33z m-255 -872 l0 -88 -87
-12 c-49 -6 -128 -22 -178 -36 -49 -14 -96 -27 -104 -28 -18 -3 -69 199 -54
214 20 20 152 37 286 38 l137 1 0 -89z m-20 -283 c0 -36 -43 -253 -70 -355
-36 -137 -68 -231 -122 -363 -22 -52 -45 -107 -51 -122 -6 -16 -14 -28 -18
-28 -11 0 -59 116 -59 142 0 14 14 45 32 69 l32 44 7 -38 c7 -46 19 -60 19
-23 0 54 -22 224 -46 365 l-25 144 29 41 c37 52 128 114 184 125 64 13 88 12
88 -1z m313 -34 c96 -24 103 -32 122 -144 8 -52 18 -106 20 -120 3 -14 -10 3
-29 38 -52 96 -120 177 -191 231 -22 16 -24 21 -10 17 11 -3 51 -13 88 -22z
m-563 -42 c-50 -53 -56 -57 -63 -39 -13 35 -4 48 53 72 30 13 57 24 60 24 3 1
-19 -25 -50 -57z m1078 -150 l-3 -33 -19 35 c-18 33 -18 41 -6 109 l14 72 8
-75 c5 -41 7 -90 6 -108z m-339 111 c53 -39 186 -179 206 -218 l19 -33 -69
-169 c-38 -92 -81 -192 -95 -221 l-27 -54 -12 149 c-12 145 -53 459 -70 535
-11 46 -2 48 48 11z m-410 -209 c-6 -8 -15 -14 -20 -14 -16 0 -10 48 9 66 16
17 17 17 20 -10 2 -15 -2 -34 -9 -42z m287 -99 c40 -43 16 -47 -69 -13 -80 33
-92 44 -54 50 44 7 97 -9 123 -37z m-630 -181 c-3 -8 -15 -14 -26 -14 -28 0
-27 43 3 73 l22 22 3 -33 c2 -19 1 -40 -2 -48z m1174 -1675 c0 -50 -4 -88 -9
-85 -9 6 -22 -17 -20 -37 0 -7 4 -3 8 7 4 11 8 -29 8 -90 0 -94 -1 -100 -6
-39 -4 41 -9 62 -12 50 -5 -16 -7 -14 -8 10 -1 20 -4 26 -10 17 -5 -8 -23 -12
-47 -10 -32 2 -39 7 -37 23 1 19 1 19 -11 3 -7 -10 -16 -15 -19 -11 -4 3 -1
13 6 22 11 14 10 14 -6 2 -13 -10 -15 -17 -6 -27 6 -8 15 -11 20 -8 15 9 10
-13 -12 -51 -15 -26 -27 -35 -40 -32 -12 3 -16 0 -12 -9 5 -14 -50 -74 -68
-74 -5 0 -9 -19 -9 -42 0 -56 -6 -45 -13 22 -3 34 -2 47 3 35 6 -14 9 -15 9
-4 1 8 -3 19 -8 25 -15 14 3 80 20 76 8 -2 11 0 6 4 -9 10 63 85 75 78 5 -3 8
-2 7 3 -4 22 3 34 18 31 10 -2 18 3 18 12 0 12 143 190 153 190 1 0 2 -41 2
-91z m-43 -251 c-3 -7 -5 -2 -5 12 0 14 2 19 5 13 2 -7 2 -19 0 -25z m-287
-83 c-9 -17 -9 -28 -1 -44 9 -15 9 -32 1 -59 -5 -20 -10 -44 -10 -52 0 -13 1
-13 10 0 5 8 10 11 10 5 0 -5 -5 -17 -10 -25 -9 -13 -10 -13 -10 0 0 12 -2 12
-9 2 -7 -11 -9 -10 -14 3 -4 9 -3 13 3 10 6 -3 10 5 10 18 0 14 2 40 5 58 l5
34 -12 -32 c-11 -26 -16 -30 -31 -22 -9 6 -15 15 -12 20 4 5 12 6 18 3 9 -5 9
-4 0 6 -14 16 -33 5 -33 -20 0 -21 -32 -44 -45 -32 -4 4 -6 -3 -3 -14 3 -12 1
-28 -4 -35 -8 -11 -9 -11 -5 1 5 16 -17 43 -27 33 -3 -4 -6 9 -6 28 0 31 9 43
88 112 85 75 87 77 90 51 2 -15 -2 -37 -8 -49z m260 35 c0 -22 -4 -40 -10 -40
-5 0 -10 18 -10 40 0 22 5 40 10 40 6 0 10 -18 10 -40z m51 -25 c6 -13 7 -35
1 -62 -5 -22 -8 -65 -6 -94 4 -54 4 -54 -11 16 -8 39 -13 95 -11 125 5 71 7
79 13 55 2 -11 9 -29 14 -40z m-501 -132 c0 -23 -20 -55 -20 -34 0 15 -7 12
-10 -4 -1 -5 -13 -26 -28 -45 -18 -25 -20 -30 -6 -17 12 9 24 17 28 17 8 0 1
-68 -9 -78 -4 -4 -4 3 -1 16 5 13 3 22 -3 22 -6 0 -11 -11 -11 -25 0 -14 -5
-25 -10 -25 -6 0 -8 11 -4 28 l7 27 -22 -24 c-13 -16 -21 -37 -21 -62 0 -21
-5 -41 -11 -44 -6 -4 -9 -30 -7 -61 2 -31 -1 -53 -7 -53 -13 -1 -6 142 7 150
6 4 7 16 3 28 -7 24 2 62 15 58 4 -1 8 3 8 8 0 6 -4 9 -9 7 -21 -5 -6 32 24
59 17 17 41 39 51 50 24 24 36 24 36 2z m297 -80 c-3 -10 -5 -4 -5 12 0 17 2
24 5 18 2 -7 2 -21 0 -30z m-90 -15 c-3 -7 -5 -2 -5 12 0 14 2 19 5 13 2 -7 2
-19 0 -25z m-160 0 c-3 -8 -6 -5 -6 6 -1 11 2 17 5 13 3 -3 4 -12 1 -19z m-8
-48 c0 -10 -3 -8 -9 5 -12 27 -12 43 0 25 5 -8 9 -22 9 -30z m-119 -49 c0 -6
-4 -13 -10 -16 -5 -3 -10 1 -10 9 0 9 5 16 10 16 6 0 10 -4 10 -9z m-13 -63
c-3 -8 -6 -5 -6 6 -1 11 2 17 5 13 3 -3 4 -12 1 -19z m580 -40 c-3 -8 -6 -5
-6 6 -1 11 2 17 5 13 3 -3 4 -12 1 -19z m-582 -107 c-6 -5 -25 10 -25 20 0 5
6 4 14 -3 8 -7 12 -15 11 -17z m-35 9 c0 -5 -4 -10 -10 -10 -5 0 -10 5 -10 10
0 6 5 10 10 10 6 0 10 -4 10 -10z m-6 -95 c3 -8 1 -15 -4 -15 -6 0 -10 7 -10
15 0 8 2 15 4 15 2 0 6 -7 10 -15z m163 9 c-3 -3 -12 -4 -19 -1 -8 3 -5 6 6 6
11 1 17 -2 13 -5z m418 -54 c-3 -5 -16 -10 -28 -9 -20 1 -20 2 3 9 14 4 26 8
28 9 2 1 0 -3 -3 -9z"/>
<path d="M4703 967 c2 -20 5 -39 8 -42 4 -3 5 11 3 31 -1 20 -5 38 -8 41 -3 3
-4 -11 -3 -30z"/>
<path d="M4741 984 c0 -11 3 -14 6 -6 3 7 2 16 -1 19 -3 4 -6 -2 -5 -13z"/>
<path d="M4539 819 c-8 -15 -8 -19 0 -15 12 8 15 -5 4 -19 -5 -6 -4 -7 2 -2 9
7 16 57 8 57 -1 0 -7 -10 -14 -21z"/>
<path d="M4416 708 c3 -5 10 -6 15 -3 13 9 11 12 -6 12 -8 0 -12 -4 -9 -9z"/>
<path d="M4385 691 c-3 -5 -2 -12 3 -15 5 -3 9 1 9 9 0 17 -3 19 -12 6z"/>
<path d="M4370 645 c-7 -8 -24 -21 -38 -28 -14 -6 -29 -22 -33 -35 -6 -15 -5
-21 1 -17 6 3 10 12 10 20 0 8 16 22 35 31 35 16 51 31 42 40 -2 2 -10 -2 -17
-11z"/>
<path d="M4396 641 c-4 -7 -5 -15 -2 -18 9 -9 19 4 14 18 -4 11 -6 11 -12 0z"/>
<path d="M4733 640 c0 -25 2 -35 4 -22 2 12 2 32 0 45 -2 12 -4 2 -4 -23z"/>
<path d="M4112 220 c0 -14 2 -19 5 -12 2 6 2 18 0 25 -3 6 -5 1 -5 -13z"/>
<path d="M5320 5393 c1 -5 19 -42 40 -83 l39 -75 1 83 0 82 -40 0 c-22 0 -40
-3 -40 -7z"/>
<path d="M4951 4842 c-1 -7 8 -41 18 -75 11 -34 29 -100 40 -147 17 -70 20
-76 15 -33 -8 86 -70 302 -73 255z"/>
<path d="M5050 4364 c0 -10 7 -57 15 -104 25 -144 75 -557 86 -715 18 -238 0
-479 -47 -645 -36 -126 -127 -287 -191 -336 -20 -15 -34 -23 -30 -17 17 27 40
334 41 533 0 220 -25 504 -46 525 -7 7 -9 -4 -5 -35 32 -236 39 -356 33 -565
-3 -121 -12 -274 -21 -340 -21 -175 -24 -169 50 -95 116 115 197 307 226 536
21 167 6 513 -35 829 -19 149 -42 308 -50 354 -15 82 -26 114 -26 75z"/>
<path d="M2590 4272 c0 -12 9 -84 20 -159 35 -247 50 -387 65 -598 8 -114 17
-210 20 -213 23 -23 -28 539 -79 885 -14 91 -26 130 -26 85z"/>
<path d="M3135 4140 c-13 -6 -15 -9 -5 -9 8 0 22 4 30 9 18 12 2 12 -25 0z"/>
<path d="M1660 3835 c18 -19 36 -32 39 -30 6 7 -50 65 -63 65 -5 0 5 -16 24
-35z"/>
<path d="M3237 3497 c-42 -65 -100 -177 -94 -184 3 -2 16 20 30 50 13 30 40
79 59 108 47 74 50 79 45 79 -2 0 -20 -24 -40 -53z"/>
<path d="M2701 3141 c0 -37 3 -61 8 -55 4 5 5 34 1 64 l-7 55 -2 -64z"/>
<path d="M2696 2958 c-3 -24 -8 -119 -11 -213 -9 -282 -46 -642 -81 -784 -16
-67 -13 -95 4 -39 27 85 66 371 81 598 15 212 25 480 18 480 -3 0 -8 -19 -11
-42z"/>
<path d="M4283 2432 c-41 -77 -72 -116 -109 -139 -16 -10 -16 -12 -3 -12 27
-1 76 57 120 141 22 44 39 81 37 83 -2 2 -22 -31 -45 -73z"/>
<path d="M4090 2260 c-13 -9 -13 -10 0 -10 8 0 22 5 30 10 13 9 13 10 0 10 -8
0 -22 -5 -30 -10z"/>
<path d="M3998 2233 c7 -3 16 -2 19 1 4 3 -2 6 -13 5 -11 0 -14 -3 -6 -6z"/>
<path d="M2096 2036 c-24 -63 -93 -136 -160 -170 -32 -15 -55 -30 -53 -33 10
-9 123 56 154 89 31 32 90 145 80 154 -2 2 -12 -16 -21 -40z"/>
<path d="M1775 1810 c-7 -12 2 -12 30 0 19 8 19 9 -2 9 -12 1 -25 -3 -28 -9z"/>
<path d="M2805 1721 c-9 -15 8 -35 24 -30 8 3 7 10 -2 23 -10 14 -16 16 -22 7z"/>
<path d="M5030 1600 c0 -22 3 -40 8 -40 4 0 6 18 4 40 -2 22 -6 40 -8 40 -2 0
-4 -18 -4 -40z"/>
<path d="M5056 1405 c-3 -9 -6 -22 -5 -28 0 -7 5 -1 10 12 5 13 8 26 5 28 -2
2 -6 -3 -10 -12z"/>
<path d="M5060 1330 c0 -5 5 -10 11 -10 5 0 7 5 4 10 -3 6 -8 10 -11 10 -2 0
-4 -4 -4 -10z"/>
<path d="M5072 1240 c0 -19 2 -27 5 -17 2 9 2 25 0 35 -3 9 -5 1 -5 -18z"/>
<path d="M5092 1180 c0 -14 2 -19 5 -12 2 6 2 18 0 25 -3 6 -5 1 -5 -13z"/>
<path d="M5053 1135 c0 -22 2 -30 4 -17 2 12 2 30 0 40 -3 9 -5 -1 -4 -23z"/>
<path d="M5090 1062 c0 -34 4 -62 9 -62 9 0 3 109 -5 119 -2 2 -4 -23 -4 -57z"/>
<path d="M3485 1022 c-38 -26 -117 -75 -175 -109 -108 -65 -130 -87 -31 -31
43 24 256 157 280 175 2 2 2 5 0 7 -2 2 -35 -17 -74 -42z"/>
<path d="M462 955 c0 -16 2 -22 5 -12 2 9 2 23 0 30 -3 6 -5 -1 -5 -18z"/>
<path d="M5091 908 c0 -7 4 -22 9 -33 7 -17 9 -15 9 13 1 17 -3 32 -9 32 -5 0
-10 -6 -9 -12z"/>
<path d="M5114 834 c-4 -20 -2 -58 4 -83 5 -25 8 -70 5 -98 -3 -32 -2 -53 4
-53 7 0 8 34 5 93 -3 50 -5 111 -5 135 1 52 -4 54 -13 6z"/>
<path d="M2690 851 c19 -12 124 -31 164 -30 17 1 -5 7 -49 13 -44 7 -91 16
-105 20 -18 5 -21 4 -10 -3z"/>
<path d="M2918 813 c12 -2 30 -2 40 0 9 3 -1 5 -23 4 -22 0 -30 -2 -17 -4z"/>
<path d="M533 730 c6 -16 13 -27 15 -25 7 7 -8 55 -17 55 -5 0 -4 -13 2 -30z"/>
<path d="M5063 720 c0 -25 2 -35 4 -22 2 12 2 32 0 45 -2 12 -4 2 -4 -23z"/>
<path d="M5087 710 c-3 -14 -2 -26 3 -28 6 -2 9 -75 8 -185 -2 -164 -3 -172
-8 -77 -6 112 -12 92 -16 -55 -3 -122 -7 -127 -14 -20 -6 80 -7 77 -4 -30 2
-66 6 -133 9 -150 4 -22 3 -25 -3 -10 -7 15 -10 7 -15 -35 -4 -30 -7 -70 -7
-87 l0 -33 65 0 65 0 0 113 c-1 61 -7 176 -14 254 -7 78 -12 154 -11 170 2 25
2 25 -3 3 l-5 -25 -7 25 c-5 15 -8 -18 -8 -80 1 -78 3 -93 8 -60 l7 45 1 -40
c1 -22 -2 -46 -7 -53 -16 -25 -21 16 -22 171 -1 84 -4 166 -8 182 l-7 30 -7
-25z m43 -440 c0 -5 -2 -10 -4 -10 -3 0 -8 5 -11 10 -3 6 -1 10 4 10 6 0 11
-4 11 -10z m-43 -49 c-1 -17 -5 -27 -9 -23 -7 7 0 52 8 52 2 0 2 -13 1 -29z"/>
<path d="M1410 631 c0 -5 7 -12 16 -15 14 -5 15 -4 4 9 -14 17 -20 19 -20 6z"/>
<path d="M481 150 c1 -58 5 -116 9 -130 5 -16 8 17 9 90 0 63 -4 122 -9 130
-7 10 -9 -19 -9 -90z"/>
</g>
</svg>
